<?xml version="1.0" encoding="utf-8"?>
<!-- Generator: Adobe Illustrator 21.0.0, SVG Export Plug-In . SVG Version: 6.00 Build 0)  -->
<svg version="1.1" id="Layer_1" xmlns="http://www.w3.org/2000/svg" xmlns:xlink="http://www.w3.org/1999/xlink" x="0px" y="0px"
	 width="3000px" height="2000px" viewBox="0 0 3000 2000" style="enable-background:new 0 0 3000 2000;" xml:space="preserve">
<style type="text/css">
	.st0{fill:#698FAF;}
	.st1{fill:#B5E3F5;}
	.st2{fill:#C7EDF9;}
	.st3{fill:#D6F5FC;}
	.st4{fill:#E2F6FD;}
	.st5{fill:#EAFAFE;}
	.st6{fill:#D9F1FB;}
	.st7{fill:#6083A5;}
	.st8{fill:#3D5C80;}
	.st9{fill:#4A6E91;}
	.st10{fill:#567C9B;}
	.st11{fill:#FFFFFF;}
	.st12{fill:#FA8CBE;}
	.st13{fill:#45505C;}
	.st14{fill:#FFBB80;}
	.st15{fill:#EC9A5F;}
	.st16{fill:#9C9C9C;}
	.st17{fill:#BEBFBF;}
	.st18{fill:#DBDDDD;}
	.st19{fill:#395371;}
	.st20{fill:#DE667A;}
	.st21{fill:#CE5972;}
	.st22{fill:#ED9887;}
	.st23{fill:#BA4F6B;}
	.st24{fill:#4D7093;}
	.st25{fill:#898989;}
	.st26{fill:#797A7A;}
	.st27{fill:#737575;}
	.st28{fill:#AFAFAF;}
	.st29{fill:#848484;}
	.st30{fill:#F2A89C;}
	.st31{fill:#FFF8F8;}
	.st32{fill:#E3D3D3;}
	.st33{fill:#FAEDED;}
	.st34{fill:#EDEFEF;}
	.st35{fill:#D1A3A3;}
	.st36{fill:#CCCECE;}
</style>
<g>
	<rect class="st0" width="3000" height="2000"/>
	<g>
		<path class="st1" d="M1502,332.8C947.9,332.8,498.8,782,498.8,1336.1c0,129,24.3,252.2,68.7,365.5h1869.1
			c44.3-113.3,68.7-236.5,68.7-365.5C2505.2,782,2056.1,332.8,1502,332.8z"/>
		<path class="st2" d="M1502,502.8c-460.2,0-833.2,373.1-833.2,833.2c0,133.8,31.6,260.2,87.6,372.3h1491.3
			c56.1-112,87.6-238.5,87.6-372.3C2335.2,875.9,1962.2,502.8,1502,502.8z"/>
		<path class="st3" d="M1502,646.7c-380.7,0-689.3,308.6-689.3,689.3c0,137.1,40.1,264.9,109.1,372.3h1160.4
			c69-107.4,109.1-235.2,109.1-372.3C2191.3,955.4,1882.7,646.7,1502,646.7z"/>
		<g>
			<path class="st4" d="M669.9,1291.5c-0.8,14.7-1.2,29.6-1.2,44.5c0,116.4,23.9,227.2,67,327.8l96.6-163.6
				c-12.9-52.6-19.7-107.6-19.7-164.2c0-318.6,216.2-586.8,509.9-665.7l96.5-163.4c-130.4,12.9-251.9,55.8-357.6,121.8L669.9,1291.5
				z"/>
			<path class="st5" d="M812.7,1336.1c0,56.6,6.8,111.6,19.7,164.2l490.2-829.9C1028.9,749.3,812.7,1017.4,812.7,1336.1z"/>
			<path class="st6" d="M2069,508.3l-86.7,146.8c69.2,48.9,130.7,108.2,182.1,175.4l92-155.8C2201.2,611.8,2138.2,555.8,2069,508.3z
				"/>
			<path class="st4" d="M1982.3,655.1l-73.5,124.4c69.4,50.8,129,114.3,175.2,187l80.4-136.1C2113,763.2,2051.5,704,1982.3,655.1z"
				/>
			<path class="st6" d="M1524.6,503.1c45.8,1.2,90.7,6.1,134.3,14.5l90.9-153.9c-41.9-10.7-84.9-18.7-128.8-23.9L1524.6,503.1z"/>
			<path class="st5" d="M1438,649.7l-568.1,961.8c19.1,43.7,42.6,85.1,69.9,123.5l640.2-1083.9c-25.6-2.9-51.7-4.4-78.1-4.4
				C1480.4,646.7,1459.1,647.7,1438,649.7z"/>
			<path class="st6" d="M2199.7,880.3c26.2,40,49,82.3,68.1,126.6l102.6-173.7c-22.9-39.4-48.3-77.1-76.2-112.9L2199.7,880.3z"/>
			<path class="st4" d="M2115.9,1022.1c23.9,46.6,42.6,96.1,55.4,148.1l96.5-163.3c-19.1-44.3-41.9-86.7-68.1-126.6L2115.9,1022.1z"
				/>
			<path class="st6" d="M503.3,1239.7c-3,31.7-4.6,63.8-4.6,96.3c0,46.6,3.2,92.5,9.3,137.4l176.2-298.2
				c37.2-190.3,139.2-357.4,282-477.4L1142.8,399c-73.6,28.2-143,64.9-207.1,108.8L503.3,1239.7z"/>
			<path class="st4" d="M684.3,1175.3l282-477.4C823.4,817.9,721.5,985,684.3,1175.3z"/>
			<path class="st6" d="M1756.6,542.4c49.3,15.8,96.6,36.1,141.4,60.3l86.5-146.5c-44.6-24.5-91.2-45.7-139.6-63.3L1756.6,542.4z"/>
			<g>
				<path class="st6" d="M669.9,1291.5l-149.5,253c10.2,48.1,23.8,95,40.6,140.3h162.2l12.4-21c-43.1-100.6-67-211.4-67-327.8
					C668.8,1321.1,669.2,1306.3,669.9,1291.5z"/>
				<path class="st6" d="M1210.9,375.7l-149.4,252.9c105.7-66,227.2-108.9,357.6-121.8L1521.9,333c-6.6-0.1-13.2-0.2-19.9-0.2
					C1400.8,332.8,1303,347.8,1210.9,375.7z"/>
			</g>
			<g>
				<path class="st4" d="M799.1,1731.4h138.2c-26.2-37.4-48.9-77.6-67.4-119.9L799.1,1731.4z"/>
				<path class="st4" d="M1438,649.7c21.1-1.9,42.4-2.9,64-2.9c26.4,0,52.4,1.5,78.1,4.4l78.9-133.5c-43.7-8.3-88.5-13.2-134.3-14.5
					L1438,649.7z"/>
			</g>
			<path class="st5" d="M1056.8,1727.3h177l591-1000.5c-45.1-23.9-93.2-43-143.6-56.5L1056.8,1727.3z"/>
			<path class="st5" d="M1908.8,779.5l-544.6,922.1h285.7l434.2-735C2037.7,893.8,1978.2,830.3,1908.8,779.5z"/>
			<path class="st5" d="M1699.3,1727.3h142.9l329.1-557.1c-12.8-51.9-31.5-101.5-55.4-148.1L1699.3,1727.3z"/>
			<path class="st4" d="M2189.6,1384.8c-9,128.4-53.1,247.2-122.9,346.6h168.9c63.5-117.6,99.6-252.3,99.6-395.4
				c0-57.8-5.9-114.3-17.1-168.8L2189.6,1384.8z"/>
			<path class="st5" d="M2082.2,1708.3c60.8-94.5,99.1-204.9,107.4-323.6l-191.1,323.6H2082.2z"/>
			<path class="st6" d="M2318.1,1167.2c11.2,54.5,17.1,111,17.1,168.8c0,133.8-31.5,260.2-87.6,372.3h36.6l221-374.2
				c-0.2-129.2-24.9-252.6-69.6-365.9L2318.1,1167.2z"/>
		</g>
		<path class="st7" d="M2326.1,1140.2c-1.4-0.5-2.8-1-4.2-1.4c-3.6-1-7.6-1.5-11.8-1.5h0h-555.7c-0.9,0-1.8,0-2.6,0.1
			c-0.1,0-0.2,0-0.4,0c-0.8,0-1.6,0.1-2.3,0.2c-0.1,0-0.1,0-0.2,0c-1.7,0.2-3.5,0.5-5.2,0.8c0,0,0,0,0,0c-0.8,0.2-1.7,0.4-2.5,0.6
			c2.6-21.1-3.2-44.7-10.7-64.9c23.5-13.2,39.4-41.2,38.9-73.5c-0.2-12.3-2.8-24-7.2-34.4c29.5-23.6,34.2-86.5,9-150.3
			c-19-48.3-50.3-84.7-80.7-98.1c-0.4-0.4-0.8-0.9-1.2-1.3c-7.3-8.4-9.4-10-12.7-12.8c-0.7-0.7-1.5-1.3-2.2-2c0,0,0,0,0,0
			c-5.4-4.9-11-9.4-16.8-13.5c-45.3-38.8-100.9-59.5-158-60.3c-1.3,0-2.7,0-4,0c-64,0.1-129.6,25.2-184.3,77.4
			c-22.2,21.2-39.2,41.8-52.4,61.9c-0.2,0.3-0.4,0.6-0.6,0.9c-0.9,1.4-1.8,2.8-2.6,4.1c-0.2,0.4-0.5,0.7-0.7,1.1
			c-0.8,1.3-1.7,2.7-2.5,4c-0.2,0.4-0.4,0.7-0.7,1.1c-0.8,1.4-1.6,2.7-2.4,4.1c-0.2,0.3-0.4,0.6-0.5,0.9c-0.8,1.4-1.6,2.9-2.4,4.3
			c-0.1,0.1-0.2,0.3-0.2,0.4c-4.4,8.1-8.3,16.2-11.8,24.2c0,0.1,0,0.1-0.1,0.2c-0.7,1.5-1.3,3-1.9,4.5c-0.1,0.2-0.1,0.3-0.2,0.5
			c-0.6,1.5-1.2,3-1.8,4.4c-0.1,0.2-0.1,0.3-0.2,0.5c-0.6,1.5-1.2,3-1.7,4.5c0,0.1,0,0.1-0.1,0.2c-15.2,41.2-20.3,81.1-29.6,121.6
			c0,0.1,0,0.1,0,0.2c-0.4,1.7-0.8,3.3-1.2,5c0,0.2-0.1,0.3-0.1,0.5c-0.4,1.6-0.8,3.2-1.2,4.8c0,0.2-0.1,0.3-0.1,0.5
			c-0.4,1.7-0.9,3.5-1.3,5.2c0,0,0,0,0,0c-0.9,3.6-1.9,7.2-3,10.8c0,0.1-0.1,0.2-0.1,0.4c-0.5,1.6-0.9,3.2-1.4,4.8
			c-0.1,0.4-0.3,0.9-0.4,1.3c-0.4,1.3-0.8,2.6-1.2,3.9c-0.2,0.5-0.4,1.1-0.5,1.6c-0.4,1.2-0.8,2.4-1.2,3.6c-0.2,0.6-0.4,1.2-0.6,1.8
			c-0.4,1.2-0.8,2.3-1.2,3.5c-0.2,0.6-0.4,1.2-0.7,1.8c-0.4,1.2-0.9,2.3-1.3,3.5c-0.2,0.6-0.4,1.2-0.7,1.8c-0.5,1.3-1,2.5-1.5,3.8
			c-0.2,0.5-0.4,1-0.6,1.4c-1.4,3.5-2.9,7-4.5,10.6c-0.2,0.5-0.5,1-0.7,1.5c-0.6,1.3-1.2,2.5-1.7,3.8c-0.3,0.7-0.6,1.3-0.9,2
			c-0.5,1.1-1.1,2.2-1.6,3.3c-0.4,0.7-0.7,1.4-1.1,2.1c-0.5,1.1-1.1,2.1-1.7,3.2c-0.4,0.7-0.8,1.5-1.2,2.2c-0.6,1.1-1.2,2.1-1.7,3.2
			c-0.4,0.7-0.8,1.4-1.2,2.2c-0.6,1.1-1.3,2.2-1.9,3.3c-0.4,0.7-0.8,1.4-1.2,2.1c-0.7,1.2-1.4,2.4-2.2,3.6c-0.4,0.6-0.7,1.2-1.1,1.8
			c-1.1,1.8-2.3,3.6-3.4,5.4c-6.2,9.5-11.6,18.8-16.3,27.6c-5.6,10.6-10.1,20.8-13.5,30.4c-0.6,1.6-1.1,3.2-1.6,4.8
			c-2,6.3-3.6,12.3-4.6,18.1c-0.3,1.4-0.5,2.9-0.7,4.3c-0.6,4.3-1,8.4-1,12.3c-0.1,5.3,0.3,10.3,1.1,15c0.2,1.2,0.5,2.4,0.7,3.5
			c2.6,11.2,8.1,20.8,16.3,28.5l-77.9,67.2c0,0,0,0,0,0l-246.8,213c-20.5,15.7-33.7,40.5-33.7,68.3v0c0,19.9,6.8,38.2,18.1,52.8
			c0.1,0.1,0.2,0.2,0.3,0.3c0.8,1,1.5,1.9,2.3,2.8c0.1,0.1,0.2,0.3,0.3,0.4h0c0.1,0.1,0.3,0.3,0.4,0.4c0.6,0.7,1.3,1.4,1.9,2.1
			c0.4,0.5,0.9,0.9,1.3,1.4c0.4,0.4,0.8,0.8,1.3,1.3c0.7,0.7,1.4,1.3,2.1,2c0.2,0.2,0.3,0.3,0.5,0.5c17.2,15.6,39.5,23.1,61.7,22.1
			H1210c6.1,0,12.1-0.6,17.8-1.9c8,2,16.3,3.1,24.9,3.1c12.7,0,24.8-2.4,36-6.7c6,4.2,13.3,6.7,21.1,6.7h103h177.4h2.1h39.8h224.6
			h249.4h0h81.7c26.9,0,54-21.8,60.5-48.7l98.4-405.2C2352,1164.9,2343,1147,2326.1,1140.2z M1123.9,1466.2h-29.4l29.6-25.6
			L1123.9,1466.2z"/>
		<g>
			<path class="st8" d="M2485.8,1638.4H514.2c-25.7,0-46.5,20.8-46.5,46.5c0,25.7,20.8,46.5,46.5,46.5h1971.5
				c25.7,0,46.5-20.8,46.5-46.5C2532.3,1659.2,2511.4,1638.4,2485.8,1638.4z"/>
			<path class="st9" d="M2387.5,1638.4H855.1c-25.7,0-46.5,20.8-46.5,46.5c0,25.7,20.8,46.5,46.5,46.5h1532.4
				c25.7,0,46.5-20.8,46.5-46.5C2434,1659.2,2413.2,1638.4,2387.5,1638.4z"/>
			<path class="st10" d="M2266.7,1638.4h-651.4c-25.7,0-46.5,20.8-46.5,46.5c0,25.7,20.8,46.5,46.5,46.5h651.4
				c25.7,0,46.5-20.8,46.5-46.5C2313.2,1659.2,2292.4,1638.4,2266.7,1638.4z"/>
		</g>
		<g>
			<path class="st7" d="M858.7,882.3c27,0,48.8-21.9,48.8-48.8V722c0-27-21.9-48.8-48.8-48.8H605.5c-27,0-48.8,21.9-48.8,48.8v111.5
				c0,27,21.9,48.8,48.8,48.8h134.1l201.2,67.1l-89-67.1H858.7z"/>
			<path class="st7" d="M1215.5,606.1c27,0,48.8-21.9,48.8-48.8V371.4c0-27-21.9-48.8-48.8-48.8H962.3c-27,0-48.8,21.9-48.8,48.8
				v185.9c0,27,21.9,48.8,48.8,48.8h134.1l201.2,67.1l-89-67.1H1215.5z"/>
			<path class="st7" d="M1943.3,283.2h-209.6c-27,0-48.8,21.9-48.8,48.8v148.4c0,27,21.9,48.8,48.8,48.8l-78,67.1l176.2-67.1h111.3
				c27,0,48.8-21.9,48.8-48.8V332C1992.2,305,1970.3,283.2,1943.3,283.2z"/>
			<path class="st7" d="M2280.9,577.9h-150.5c-27,0-48.8,21.9-48.8,48.8v53.6c0,27,21.9,48.8,48.8,48.8h-9.4l-63,54.2l142.4-54.2
				h80.5c27,0,48.8-21.9,48.8-48.8v-53.6C2329.8,599.8,2307.9,577.9,2280.9,577.9z"/>
			<path class="st7" d="M2244.1,841.1h-209.6c-27,0-48.8,21.9-48.8,48.8v89.5c0,27,21.9,48.8,48.8,48.8l-78,67.1l176.2-67.1h111.3
				c27,0,48.8-21.9,48.8-48.8v-89.5C2292.9,863,2271,841.1,2244.1,841.1z"/>
			<path class="st7" d="M896.9,1173.3c27,0,48.8-21.9,48.8-48.8v-66.9c0-27-21.9-48.8-48.8-48.8H718.5c-27,0-48.8,21.9-48.8,48.8
				v66.9c0,27,21.9,48.8,48.8,48.8h95.1l158.4,52.8l-70.1-52.8H896.9z"/>
			<g>
				<path class="st11" d="M2222.2,823.9h-209.6c-27,0-48.8,21.9-48.8,48.8v89.5c0,27,21.9,48.8,48.8,48.8l-78,67.1l176.2-67.1h111.3
					c27,0,48.8-21.9,48.8-48.8v-89.5C2271,845.7,2249.2,823.9,2222.2,823.9z"/>
				<g>
					<circle class="st12" cx="2041.4" cy="917.5" r="19.3"/>
					<circle class="st12" cx="2117.4" cy="917.5" r="19.3"/>
					<circle class="st12" cx="2193.4" cy="917.5" r="19.3"/>
				</g>
			</g>
			<g>
				<path class="st11" d="M2269.2,560.8h-150.5c-27,0-48.8,21.9-48.8,48.8v53.6c0,27,21.9,48.8,48.8,48.8h-9.4l-63,54.2l142.4-54.2
					h80.5c27,0,48.8-21.9,48.8-48.8v-53.6C2318,582.7,2296.1,560.8,2269.2,560.8z"/>
				<g>
					<path class="st12" d="M2197.4,589.2c-19.9,0-35.9,16.1-35.9,35.9c0,5.5,1.2,10.6,3.4,15.3l-48.1,32c-2.8,1.9-3.6,5.7-1.7,8.5
						c1.9,2.8,5.7,3.6,8.5,1.7l48.3-32.2c6.5,6.6,15.6,10.7,25.5,10.7c19.9,0,35.9-16.1,35.9-35.9S2217.2,589.2,2197.4,589.2z
						 M2197.4,653.3c-15.5,0-28.1-12.6-28.1-28.1s12.6-28.1,28.1-28.1s28.1,12.6,28.1,28.1S2212.9,653.3,2197.4,653.3z"/>
					<g>
						<path class="st12" d="M2258.5,651L2258.5,651c-2.5,0-4.6,2.1-4.6,4.6s2.1,4.6,4.6,4.6l0,0c2.5,0,4.6-2.1,4.6-4.6
							S2261.1,651,2258.5,651z"/>
						<path class="st12" d="M2259.7,598.6c-9.3,0-14.1,5.6-14.1,15.3v1.5c0,2.5,2,4.5,4.5,4.5s4.5-2,4.5-4.5v-2.1c0-4.3,1.7-6,4.8-6
							c3,0,4.8,1.7,4.8,6c0,15.1-10.4,16.3-10.4,29.6c0,0.2,0,0.4,0,0.6c0.1,1.8,1.5,3.2,3.3,3.2h2.1c1.8,0,3.4-1.5,3.4-3.4v0
							c0-11.1,11.3-13.6,11.3-29.4C2273.8,604.2,2269,598.6,2259.7,598.6z"/>
					</g>
				</g>
			</g>
			<g>
				<path class="st11" d="M1923,265h-209.6c-27,0-48.8,21.9-48.8,48.8v148.4c0,27,21.9,48.8,48.8,48.8l-78,67.1l176.2-67.1H1923
					c27,0,48.8-21.9,48.8-48.8V313.8C1971.9,286.9,1950,265,1923,265z"/>
				<g>
					<g>
						<path class="st12" d="M1847.4,396.3l-24.2-2.4c-1.3-6-3.7-11.5-6.8-16.5l15.4-18.8c0.6-0.7,0.5-1.7-0.1-2.4l-5-5l-5-5
							c-0.6-0.6-1.7-0.7-2.4-0.1l-18.8,15.4c-5-3.2-10.6-5.5-16.5-6.8l-2.4-24.2c-0.1-0.9-0.9-1.6-1.8-1.6h-7.1h-7.1
							c-0.9,0-1.7,0.7-1.8,1.6l-2.4,24.2c-6,1.3-11.5,3.7-16.5,6.8l-18.8-15.4c-0.7-0.6-1.7-0.5-2.4,0.1l-5,5l-5,5
							c-0.6,0.6-0.7,1.7-0.1,2.4l15.4,18.8c-3.2,5-5.5,10.6-6.8,16.5l-24.2,2.4c-0.9,0.1-1.6,0.9-1.6,1.8v7.1v7.1
							c0,0.9,0.7,1.7,1.6,1.8l24.2,2.4c1.3,6,3.7,11.5,6.8,16.5l-15.4,18.8c-0.6,0.7-0.5,1.7,0.1,2.4l5,5l5,5
							c0.6,0.6,1.7,0.7,2.4,0.1l18.8-15.4c5,3.2,10.6,5.5,16.5,6.8l2.4,24.2c0.1,0.9,0.9,1.6,1.8,1.6h7.1h7.1c0.9,0,1.7-0.7,1.8-1.6
							l2.4-24.2c6-1.3,11.5-3.7,16.5-6.8l18.8,15.4c0.7,0.6,1.7,0.5,2.4-0.1l5-5l5-5c0.6-0.6,0.7-1.7,0.1-2.4l-15.4-18.8
							c3.2-5,5.5-10.6,6.8-16.5l24.2-2.4c0.9-0.1,1.6-0.9,1.6-1.8v-7.1v-7.1C1849,397.2,1848.3,396.4,1847.4,396.3z M1772.7,445.3
							c-22.2,0-40.1-18-40.1-40.1c0-22.2,18-40.1,40.1-40.1c22.2,0,40.1,18,40.1,40.1C1812.8,427.3,1794.8,445.3,1772.7,445.3z"/>
						<path class="st12" d="M1772.7,371.9c-18.4,0-33.2,14.9-33.2,33.2c0,18.4,14.9,33.2,33.2,33.2c18.4,0,33.2-14.9,33.2-33.2
							C1805.9,386.8,1791,371.9,1772.7,371.9z M1772.7,433.2c-15.5,0-28-12.5-28-28c0-15.5,12.5-28,28-28c15.5,0,28,12.5,28,28
							C1800.7,420.6,1788.1,433.2,1772.7,433.2z"/>
					</g>
					<path class="st12" d="M1939.1,334.9l-14.5-1.4c-0.8-3.6-2.2-6.9-4.1-9.9l9.2-11.2c0.3-0.4,0.3-1-0.1-1.4l-3-3l-3-3
						c-0.4-0.4-1-0.4-1.4-0.1l-11.2,9.2c-3-1.9-6.3-3.3-9.9-4.1l-1.4-14.5c-0.1-0.5-0.5-1-1.1-1h-4.2h-4.2c-0.5,0-1,0.4-1.1,1
						l-1.4,14.5c-3.6,0.8-6.9,2.2-9.9,4.1l-11.2-9.2c-0.4-0.3-1-0.3-1.4,0.1l-3,3l-3,3c-0.4,0.4-0.4,1-0.1,1.4l9.2,11.2
						c-1.9,3-3.3,6.3-4.1,9.9l-14.5,1.4c-0.5,0.1-1,0.5-1,1.1v4.2v4.2c0,0.5,0.4,1,1,1.1l14.5,1.4c0.8,3.6,2.2,6.9,4.1,9.9
						l-9.2,11.2c-0.3,0.4-0.3,1,0.1,1.4l3,3l3,3c0.4,0.4,1,0.4,1.4,0.1l11.2-9.2c3,1.9,6.3,3.3,9.9,4.1l1.4,14.5
						c0.1,0.5,0.5,1,1.1,1h4.2h4.2c0.5,0,1-0.4,1.1-1l1.4-14.5c3.6-0.8,6.9-2.2,9.9-4.1l11.2,9.2c0.4,0.3,1,0.3,1.4-0.1l3-3l3-3
						c0.4-0.4,0.4-1,0.1-1.4l-9.2-11.2c1.9-3,3.3-6.3,4.1-9.9l14.5-1.4c0.5-0.1,1-0.5,1-1.1v-4.2v-4.2
						C1940.1,335.4,1939.7,334.9,1939.1,334.9z M1894.5,353.4c-7.3,0-13.2-5.9-13.2-13.2c0-7.3,5.9-13.2,13.2-13.2
						c7.3,0,13.2,5.9,13.2,13.2C1907.7,347.4,1901.8,353.4,1894.5,353.4z"/>
				</g>
			</g>
			<g>
				<path class="st11" d="M1232.1,589.7c27,0,48.8-21.9,48.8-48.8V355c0-27-21.9-48.8-48.8-48.8H978.9c-27,0-48.8,21.9-48.8,48.8
					v185.9c0,27,21.9,48.8,48.8,48.8H1113l201.2,67.1l-89-67.1H1232.1z"/>
				<path class="st12" d="M1139.9,345.5c-0.3-0.1-0.7-0.3-1-0.3c-10.5-3.4-21.7-5.3-33.4-5.3c-11.6,0-22.9,1.9-33.4,5.3
					c-0.3,0.1-0.7,0.2-1,0.3c-42.8,14.4-73.7,54.9-73.7,102.4c0,59.6,48.5,108.1,108.1,108.1s108.1-48.5,108.1-108.1
					C1213.6,400.3,1182.7,359.9,1139.9,345.5z M1078.5,357.7c8.6-2.6,17.6-4,27-4c9.4,0,18.4,1.4,27,4c2.3,4.5,7.5,15.1,12.4,29.8
					c-1.3-0.3-2.6-0.6-3.9-0.8c-25.7-5.1-50.7-5.4-74.2-1C1071.5,371.9,1076.3,362,1078.5,357.7z M1059.4,365.8
					c-2.7,6.4-5.7,14.4-8.4,23.6c-8.9,2.6-17.6,5.8-26,9.8C1033.3,385.4,1045.2,373.8,1059.4,365.8z M1011.4,447.9
					c0-9.7,1.5-19,4.2-27.8c10-6.2,20.5-11.2,31.3-14.9c-0.4,2-0.9,4-1.3,6c-5.2,26.4-5.4,52.1-0.6,76.3
					c-10.5-3.8-20.6-8.7-30.3-14.8C1012.5,464.8,1011.4,456.5,1011.4,447.9z M1023,493.2c8.4,4.1,17,7.4,25.9,10.1
					c2.7,9.2,6.2,18.1,10.5,26.7C1044.1,521.3,1031.5,508.6,1023,493.2z M1131.4,537.8c-0.2,0.2-0.3,0.5-0.4,0.7
					c-8.1,2.3-16.7,3.5-25.5,3.5c-8.8,0-17.4-1.2-25.5-3.5c-0.1-0.2-0.2-0.5-0.4-0.7c-6.2-9.8-11.1-20-15-30.6
					c11.6,2.3,23.6,3.5,35.9,3.5c13.2,0,26.7-1.3,40.4-4.1c2-0.4,4-0.8,6-1.3C1143.1,516.6,1137.9,527.4,1131.4,537.8z
					 M1137.8,493.1c-27.6,5.4-53.5,5-77.7-1c-6-24.2-6.4-50.2-1-77.7c0.9-4.8,2-9.3,3.1-13.6c23.6-5.5,48.8-5.7,75.6-0.5
					c4,0.8,7.8,1.7,11.5,2.6c0.9,3.7,1.8,7.5,2.6,11.5c5.2,26.7,5.1,52-0.5,75.6C1147.1,491.1,1142.6,492.2,1137.8,493.1z
					 M1151.7,529.9c4.6-9.2,8.2-18.8,11.1-28.7c10.5-3.1,19.3-6.6,26.1-9.5C1180.4,507.8,1167.4,521,1151.7,529.9z M1199.7,447.9
					c0,8.6-1.2,16.9-3.3,24.8c-2.4,1.3-13.4,7.2-29.9,12.8c4.4-23.5,4.1-48.5-1-74.2c-0.3-1.3-0.5-2.6-0.8-3.9
					c16,5.3,27.2,10.9,30.9,12.9C1198.2,429,1199.7,438.3,1199.7,447.9z M1160.7,391.5c-2.9-10.1-6.2-18.8-9-25.7
					c14.7,8.3,26.9,20.4,35.4,35C1180.1,397.9,1171.1,394.5,1160.7,391.5z"/>
			</g>
			<g>
				<path class="st11" d="M875.4,866.7c27,0,48.8-21.9,48.8-48.8V706.3c0-27-21.9-48.8-48.8-48.8H622.1c-27,0-48.8,21.9-48.8,48.8
					v111.5c0,27,21.9,48.8,48.8,48.8h134.1l201.2,67.1l-89-67.1H875.4z"/>
				<path class="st12" d="M834.5,697.1H663.1c-10.4,0-18.8,8.4-18.8,18.8v92.3c0,10.4,8.4,18.8,18.8,18.8h171.4
					c10.4,0,18.8-8.4,18.8-18.8v-92.3C853.2,705.5,844.8,697.1,834.5,697.1z M663.1,710.9h171.4c1.6,0,3.1,0.8,4,2l-75.9,49
					c-8.4,5.4-19.2,5.4-27.6,0l-75.9-49C660,711.6,661.4,710.9,663.1,710.9z M839.5,808.3c0,2.8-2.3,5-5,5H663.1c-2.8,0-5-2.3-5-5
					v-79.7l69.5,44.8c6.5,4.2,13.9,6.3,21.3,6.3c7.4,0,14.8-2.1,21.3-6.3l69.5-44.8V808.3z"/>
			</g>
			<g>
				<path class="st11" d="M911.7,1157.3c27,0,48.8-21.9,48.8-48.8v-66.9c0-27-21.9-48.8-48.8-48.8H733.3c-27,0-48.8,21.9-48.8,48.8
					v66.9c0,27,21.9,48.8,48.8,48.8h95.1l158.4,52.8l-70.1-52.8H911.7z"/>
				<g>
					<path class="st12" d="M837.6,1070.9c6.1-4.6,10-11.8,10-20c0-13.9-11.3-25.1-25.1-25.1c-13.9,0-25.1,11.3-25.1,25.1
						c0,8.2,3.9,15.4,10,20c-11.1,5.6-18.7,17-18.7,30.3v33.9h67.8v-33.9C856.4,1087.9,848.7,1076.4,837.6,1070.9z"/>
					<path class="st12" d="M805.7,1026.1c-4.5-6.7-12.2-11.2-20.9-11.2c-13.9,0-25.1,11.3-25.1,25.1c0,8.2,3.9,15.4,10,20
						c-11.1,5.6-18.7,17-18.7,30.3v33.9h29v-24.1c0-13.3,7.6-24.7,18.7-30.3c-6.1-4.6-10-11.8-10-20
						C788.6,1038.8,795.7,1029.5,805.7,1026.1z"/>
					<path class="st12" d="M875.4,1060.1c6.1-4.6,10-11.8,10-20c0-13.9-11.3-25.1-25.1-25.1c-8.7,0-16.4,4.4-20.9,11.2
						c9.9,3.4,17.1,12.7,17.1,23.8c0,8.2-3.9,15.4-10,20c11.1,5.6,18.7,17,18.7,30.3v24.1h29v-33.9
						C894.1,1077.1,886.5,1065.7,875.4,1060.1z"/>
				</g>
			</g>
		</g>
		<g>
			<path class="st13" d="M1624.9,1076.7l-50.3,132.9c0,0,44.7-5.1,191.3-13.6s44-170.9,44-170.9L1624.9,1076.7z"/>
			<polygon class="st14" points="1228.8,1278.3 1225.7,1604 1778.3,1604 1778.3,1117.4 1374.4,1178.8 			"/>
			<path class="st15" d="M1778.3,1133.3c-6.8-7.9-15.8-13.5-15.8-13.5l-388.1,59l-145.6,99.5l-2.6,274h105.2l3.9-76.1
				c2.9-56.6,49.7-101.1,106.4-101.1l338.2,0l-5.6-56C1778.1,1245.3,1782.8,1138.5,1778.3,1133.3z"/>
			<path class="st15" d="M1820.7,1136.5c-31.1-36-85.5-40-121.5-8.9l0,0c-36,31.1-40,85.5-8.9,121.5l157.6,182.7
				c31.1,36,85.5,40,121.5,8.9c36-31.1,40-85.5,8.9-121.5L1820.7,1136.5z"/>
			<path class="st14" d="M1820.7,1136.5c-21.3-24.7-53.6-34.3-83.4-27.9c16.1,4.3,31.2,13.3,42.9,26.9l157.6,182.7
				c31.1,36,27.1,90.4-8.9,121.5l0,0c-11.3,9.8-24.4,16.1-38.1,19c26.6,7.1,56.2,1.4,78.6-18h0c36-31.1,40-85.5,8.9-121.5
				L1820.7,1136.5z"/>
			<g>
				<g>
					
						<ellipse transform="matrix(0.9999 -1.582402e-02 1.582402e-02 0.9999 -15.6223 28.6592)" class="st16" cx="1803.2" cy="1001.5" rx="69.3" ry="80.4"/>
					
						<ellipse transform="matrix(0.9999 -1.582415e-02 1.582415e-02 0.9999 -15.6224 28.6594)" class="st17" cx="1803.2" cy="1001.5" rx="59" ry="68.4"/>
					<path class="st18" d="M1788.5,945c-0.5,0.2-0.9,0.4-1.4,0.6c-29.5,15.8-30.4,56.8-30.4,58.5c-0.1,5.9,4.7,10.8,10.6,10.9
						c5.9,0.1,10.8-4.6,10.9-10.6c0-0.3,0.7-30.1,19-39.8c5.2-2.8,7.2-9.3,4.4-14.5C1799.1,945.2,1793.5,943.2,1788.5,945z"/>
				</g>
				
					<ellipse transform="matrix(0.9304 -0.3665 0.3665 0.9304 -183.7948 719.6727)" class="st13" cx="1803.2" cy="843.8" rx="76.4" ry="138.5"/>
				<path class="st19" d="M1414.4,705.2c-134.1,128.2-77.5,231.9-156.9,354c-79.3,122.1-32.5,191.2,128.2,160.7
					c160.7-30.5,138.9-258.4,138.9-258.4c214.2,10.2,304.8-183.6,304.8-183.6C1748.2,612.6,1548.4,577,1414.4,705.2z"/>
				<g>
					<path class="st13" d="M1411.7,1180.6c-160.7,30.5-207.5-38.7-128.2-160.7c61.9-95.2,41.1-179.3,92.6-272.5
						c-84.8,109.5-48.1,203.4-118.6,311.8c-79.3,122.1-32.5,191.2,128.2,160.7c56.5-10.7,90.4-45.9,110.7-86.9
						C1476.2,1156,1448.8,1173.6,1411.7,1180.6z"/>
				</g>
				<path class="st20" d="M1612.9,994.8L1612.9,994.8c-43.7-17.9-93.6,3.1-111.4,46.7l-60,146.7c-17.9,43.7,3.1,93.6,46.7,111.4h0
					c43.7,17.9,93.6-3.1,111.4-46.7l60-146.7C1677.5,1062.5,1656.6,1012.6,1612.9,994.8z"/>
				<path class="st21" d="M1612.9,994.8L1612.9,994.8c-13.8-5.6-28.1-7.4-41.9-5.8c7.7,0.9,15.4,2.8,22.9,5.8l0,0
					c43.7,17.9,64.6,67.8,46.7,111.4l-60,146.7c-12.2,29.9-39.5,49.2-69.5,52.6c37,4.1,73.7-16.4,88.5-52.6l60-146.7
					C1677.5,1062.5,1656.6,1012.6,1612.9,994.8z"/>
				<ellipse class="st22" cx="1629.9" cy="899.3" rx="229.1" ry="246.9"/>
				<path class="st20" d="M1670.6,656.4c94.4,30.5,106.9,99.9,141.8,206c57.8,176.1-81.2,277.3-207.7,277.3
					c-13.9,0-27.5-1.3-40.7-3.9c20.9,6.8,43,10.4,65.9,10.4c126.5,0,229.1-110.5,229.1-246.9C1859,778,1777.7,677.1,1670.6,656.4z"
					/>
				<path class="st19" d="M1618.8,646.1c-126.5,3.6-227.9,109.2-227.9,245.5c0,87.6,2.3,214.6,66.2,258.4
					c41.7-94.3,67.5-188.4,67.5-188.4c214.2,10.2,334.4-84.9,334.4-84.9C1839.2,705.1,1723.6,643.1,1618.8,646.1z"/>
				<ellipse class="st22" cx="1524.6" cy="1001.5" rx="39.1" ry="57.7"/>
				<path class="st19" d="M1657.3,1012.3c-10.4,0-19.2-6.8-22.2-16.3c-0.7,2.2-1.1,4.5-1.1,6.9c0,12.8,10.4,23.2,23.2,23.2
					c12.8,0,23.2-10.4,23.2-23.2c0-2.4-0.4-4.8-1.1-6.9C1676.5,1005.4,1667.7,1012.3,1657.3,1012.3z"/>
				<path class="st19" d="M1797.6,1012.3c-10.4,0-19.2-6.8-22.2-16.3c-0.7,2.2-1.1,4.5-1.1,6.9c0,12.8,10.4,23.2,23.2,23.2
					s23.2-10.4,23.2-23.2c0-2.4-0.4-4.8-1.1-6.9C1816.8,1005.4,1808,1012.3,1797.6,1012.3z"/>
				<circle class="st23" cx="1697.9" cy="1097.5" r="21.2"/>
				<path class="st13" d="M1777.4,701.6c-153.8,10.3-240.2,157.2-246.9,169.1c-0.3,0.5-0.4,0.8-0.4,0.8l0,0
					c-35.9,4.9-68.2,35.1-78.5,77.4c-11.2,45.8,7.1,90.9,41.7,109.6c19.8-55.5,31.2-96.9,31.2-96.9c34.5,1.6,66.6,0.5,96.2-2.5
					c-0.5-18.2-5.5-35.2-14.1-49.4l0,0c0.8-1.8,1.6-3.6,2.4-5.4c0.2-0.5,0.4-0.9,0.7-1.4c0.7-1.4,1.3-2.8,2-4.2
					c0.2-0.4,0.4-0.8,0.6-1.2c1.8-3.7,3.8-7.4,5.8-11c44.4-78.6,136.5-138.4,181.8-161.3C1792.9,716.5,1785.4,708.7,1777.4,701.6z"
					/>
				<path class="st11" d="M1697.9,1076.2c-9.5,0-17.5,6.2-20.2,14.8h40.5C1715.4,1082.5,1707.3,1076.2,1697.9,1076.2z"/>
				
					<ellipse transform="matrix(0.9923 -0.1239 0.1239 0.9923 -72.0942 202.0611)" class="st24" cx="1588.4" cy="680.6" rx="86" ry="52.1"/>
				
					<ellipse transform="matrix(0.8924 -0.4513 0.4513 0.8924 -195.9742 899.6967)" class="st24" cx="1788.4" cy="860.8" rx="54.8" ry="33.2"/>
				<g>
					<path class="st25" d="M1775,699.4c-170,1.3-262.5,170.5-262.5,170.5l76.6,38.2c40.9-97.7,162.3-171.3,204.8-190
						C1782.2,704.6,1782.4,706.5,1775,699.4z"/>
					<path class="st26" d="M1774.4,699.5c-169.6,1.6-262,170.4-262,170.4l76.6,38.2c3.3-7.9,7.2-15.7,11.5-23.3l-25.8-14.6
						c-15.4-8.7-19.4-29.2-8.3-43.1C1599.2,786.4,1671.5,712.6,1774.4,699.5z"/>
					<path class="st27" d="M1676.4,1115.2H1615c-31.5,0-60.3-18.5-73.3-47.2l-9.7-21.3c-1.9-4.1-6.7-5.9-10.8-4
						c-4.1,1.9-5.9,6.7-4,10.8l9.7,21.3c15.7,34.5,50.3,56.8,88.2,56.8h61.4c4.5,0,8.1-3.6,8.1-8.1
						C1684.6,1118.8,1680.9,1115.2,1676.4,1115.2z"/>
					<g>
						
							<ellipse transform="matrix(0.237 -0.9715 0.9715 0.237 217.4544 2211.959)" class="st16" cx="1516.9" cy="967.5" rx="99" ry="85.4"/>
						
							<ellipse transform="matrix(0.237 -0.9715 0.9715 0.237 217.4539 2211.9585)" class="st17" cx="1516.9" cy="967.5" rx="84.3" ry="72.7"/>
						<path class="st28" d="M1498.8,1041.8c-37.9-9.2-60.3-51.4-51.5-95.2c-0.4,1.3-0.7,2.5-1,3.8c-11,45.2,11.6,89.6,50.6,99.1
							c39,9.5,79.5-19.4,90.6-64.7c0.3-1.3,0.6-2.6,0.9-3.9C1576,1023.9,1536.7,1051,1498.8,1041.8z"/>
						<path class="st18" d="M1517,895.6c-0.6,0.1-1.2,0.2-1.8,0.3c-40.1,9.7-53.9,58.2-54.4,60.3c-1.9,7,2.2,14.3,9.2,16.2
							c7,1.9,14.3-2.2,16.3-9.2c0.1-0.4,10.2-35.6,35.1-41.6c7.1-1.7,11.5-8.9,9.8-16C1529.6,899.1,1523.5,894.9,1517,895.6z"/>
					</g>
					<path class="st27" d="M1713.9,1109.7h-79.5c-5.2,0-9.5,4.3-9.5,9.5v6.8c0,5.2,4.3,9.5,9.5,9.5h79.5c5.2,0,9.5-4.3,9.5-9.5v-6.8
						C1723.4,1114,1719.2,1109.7,1713.9,1109.7z"/>
					<path class="st29" d="M1713.9,1109.7h-52.4c-5.2,0-9.5,4.3-9.5,9.5v6.8c0,5.2,4.3,9.5,9.5,9.5h52.4c5.2,0,9.5-4.3,9.5-9.5v-6.8
						C1723.4,1114,1719.2,1109.7,1713.9,1109.7z"/>
				</g>
			</g>
			<g>
				<path class="st14" d="M1444.8,1139c-31.1-36-85.5-40-121.5-8.9l-182.7,157.6c-36,31.1-40,85.5-8.9,121.5l0,0
					c31.1,36,85.5,40,121.5,8.9l182.7-157.6C1471.9,1229.4,1475.9,1175,1444.8,1139L1444.8,1139z"/>
				<path class="st15" d="M1444.8,1139c-3.9-4.5-8.1-8.5-12.6-12c-1.8,21.7-11.8,42.8-29.6,58.1L1220,1342.8
					c-31.5,27.2-77.2,27.5-108.9,3c-1.8,22.2,4.9,45.1,20.6,63.4l0,0c31.1,36,85.5,40,121.5,8.9l182.7-157.6
					C1471.9,1229.4,1475.9,1175,1444.8,1139L1444.8,1139z"/>
				<path class="st20" d="M1281.5,1279.9c-31.1-36-85.5-40-121.5-8.9l-250.5,216.2c-36,31.1-40,85.5-8.9,121.5l0,0
					c31.1,36,85.5,40,121.5,8.9l250.5-216.2C1308.6,1370.3,1312.6,1315.9,1281.5,1279.9L1281.5,1279.9z"/>
				<path class="st22" d="M1313.1,1466.1H965.7c-47.6,0-86.1,38.6-86.1,86.1v0c0,47.6,38.6,86.1,86.1,86.1h347.4
					c47.6,0,86.1-38.6,86.1-86.1v0C1399.3,1504.7,1360.7,1466.1,1313.1,1466.1z"/>
				<circle class="st22" cx="1355.8" cy="1538.8" r="100.8"/>
				<circle class="st30" cx="1357" cy="1489.8" r="39.1"/>
			</g>
			<g>
				<path class="st11" d="M1376.1,1602.7L1376.1,1602.7c0,20.4,16.5,37,37,37h547v-73.9h-547
					C1392.6,1565.8,1376.1,1582.3,1376.1,1602.7z"/>
				<path class="st31" d="M1703.1,1565.8h-196.8c-15,0-27.2,12.2-27.2,27.2v19.4c0,15,12.2,27.2,27.2,27.2h196.8
					c15,0,27.2-12.2,27.2-27.2V1593C1730.4,1578,1718.2,1565.8,1703.1,1565.8z"/>
				<path class="st32" d="M1413,1565.8L1413,1565.8h310.8v-10.3h-300.5C1417.6,1555.5,1413,1560.1,1413,1565.8z"/>
				<path class="st33" d="M1658.7,1591c-6.5,26.9,10,48.7,36.9,48.7H1960v-73.9h-295.1L1658.7,1591z"/>
				<g>
					<path class="st32" d="M1600.4,1585.8h-1.9c-1.5,0-2.7,1.2-2.7,2.7v28.6c0,1.5,1.2,2.7,2.7,2.7h1.9c1.5,0,2.7-1.2,2.7-2.7v-28.6
						C1603.1,1587,1601.9,1585.8,1600.4,1585.8z"/>
					<path class="st32" d="M1614.6,1585.8h-1.9c-1.5,0-2.7,1.2-2.7,2.7v28.6c0,1.5,1.2,2.7,2.7,2.7h1.9c1.5,0,2.7-1.2,2.7-2.7v-28.6
						C1617.3,1587,1616.1,1585.8,1614.6,1585.8z"/>
					<path class="st32" d="M1628.9,1585.8h-1.9c-1.5,0-2.7,1.2-2.7,2.7v28.6c0,1.5,1.2,2.7,2.7,2.7h1.9c1.5,0,2.7-1.2,2.7-2.7v-28.6
						C1631.5,1587,1630.3,1585.8,1628.9,1585.8z"/>
				</g>
				<path class="st32" d="M1559.1,1598.3h-40.3c-1.8,0-3.3,1.5-3.3,3.3v2.3c0,1.8,1.5,3.3,3.3,3.3h40.3c1.8,0,3.3-1.5,3.3-3.3v-2.3
					C1562.4,1599.8,1560.9,1598.3,1559.1,1598.3z"/>
				<path class="st11" d="M2413.1,1137.1h-555.7c-26.9,0-54,21.8-60.5,48.7l-98.4,405.2c-6.5,26.9,10,48.7,36.9,48.7h555.7
					c26.9,0,54-21.8,60.5-48.7l98.4-405.2C2456.5,1158.9,2440,1137.1,2413.1,1137.1z"/>
				<path class="st33" d="M2413.1,1137.1h-555.7c-3.6,0-7.2,0.4-10.7,1.1h474.1c26.9,0,43.4,21.8,36.9,48.7l-98.4,405.2
					c-5.7,23.3-26.8,42.8-49.8,47.6h81.7c26.9,0,54-21.8,60.5-48.7l98.4-405.2C2456.5,1158.9,2440,1137.1,2413.1,1137.1z"/>
				<g>
					<path class="st33" d="M2088,1347.3c-24.3,0-50.5,19.7-58.3,44.1c-7.9,24.3,5.5,44.1,29.9,44.1s50.5-19.7,58.3-44.1
						C2125.7,1367,2112.3,1347.3,2088,1347.3z"/>
					<path class="st32" d="M2117.8,1391.4c-7.9,24.3-34,44.1-58.3,44.1c-16.3,0-27.7-8.9-31.1-22.1c-0.5,18.3,12.1,31.6,32.1,31.6
						c24.3,0,50.5-19.7,58.3-44.1c2.6-8,2.9-15.5,1.2-22C2119.9,1382.8,2119.2,1387,2117.8,1391.4z"/>
				</g>
			</g>
			<path class="st15" d="M1703.9,1354.6l-24.2-0.2l1.1-4c0.4-1.6-0.6-2.9-2.4-3l-25.5-0.2c-1.8,0-3.6,1.3-4,2.9l-1.1,4l-24.2-0.2
				c-4.4,0-8.9,3.2-10,7.3l-31.2,116.7c-0.1,0.3-0.1,0.7-0.2,1c0,0.1,0,0.2,0,0.2c0,0.3,0,0.6,0,0.9c0,0,0,0,0,0
				c0,0.3,0.1,0.6,0.1,0.9c0,0,0,0.1,0,0.1c0.6,2.5,2.9,4.2,6.1,4.3l80.3,0.6c4.4,0,8.9-3.2,10-7.3l20.6-77.1l10.6-39.6
				C1711.1,1357.9,1708.3,1354.6,1703.9,1354.6z"/>
			<g>
				<g>
					<path class="st11" d="M1715,1346.4l-80.3-0.6c-4.4,0-8.9,3.2-10,7.3l-31.2,116.7c-1.1,4.1,1.6,7.4,6.1,7.4l80.3,0.6
						c4.4,0,8.9-3.2,10-7.3l31.2-116.7C1722.1,1349.8,1719.4,1346.4,1715,1346.4z"/>
					<path class="st17" d="M1689.4,1339.3l-25.5-0.2c-1.8,0-3.6,1.3-4,2.9l-1.6,5.8c-0.4,1.6,0.6,2.9,2.4,3l25.5,0.2
						c1.8,0,3.6-1.3,4-2.9l1.6-5.8C1692.3,1340.6,1691.2,1339.3,1689.4,1339.3z"/>
					<path class="st34" d="M1715,1346.4l-80.3-0.6c-4.4,0-8.9,3.2-10,7.3l-31.2,116.7c-0.4,1.5-0.3,2.9,0.2,4l115-74.4l12.2-45.7
						C1722.1,1349.8,1719.4,1346.4,1715,1346.4z"/>
				</g>
				<g>
					<path class="st35" d="M1686.3,1366.3l-33.7-0.2c-1.9,0-3.8,1.4-4.3,3.1l-10.8,40.4c-0.5,1.7,0.7,3.1,2.6,3.2l33.7,0.2
						c1.9,0,3.8-1.4,4.3-3.1l10.8-40.4C1689.4,1367.7,1688.2,1366.3,1686.3,1366.3z"/>
					<path class="st36" d="M1690.5,1421.8l-71.7-0.5c-1.2,0-2.4,0.9-2.6,1.9c-0.3,1.1,0.4,2,1.6,2l71.7,0.5c1.2,0,2.4-0.9,2.6-1.9
						S1691.7,1421.8,1690.5,1421.8z"/>
					<path class="st36" d="M1687.9,1431.7l-71.7-0.5c-1.2,0-2.4,0.9-2.6,1.9c-0.3,1.1,0.4,2,1.6,2l71.7,0.5c1.2,0,2.4-0.9,2.6-1.9
						S1689.1,1431.7,1687.9,1431.7z"/>
					<path class="st36" d="M1685.3,1441.6l-71.7-0.5c-1.2,0-2.4,0.9-2.6,1.9c-0.3,1.1,0.4,2,1.6,2l71.7,0.5c1.2,0,2.4-0.9,2.6-1.9
						C1687.1,1442.5,1686.4,1441.6,1685.3,1441.6z"/>
					<path class="st36" d="M1682.6,1451.5l-71.7-0.5c-1.2,0-2.4,0.9-2.6,1.9s0.4,2,1.6,2l71.7,0.5c1.2,0,2.4-0.9,2.6-1.9
						C1684.5,1452.4,1683.8,1451.5,1682.6,1451.5z"/>
					<path class="st36" d="M1680,1461.4l-71.7-0.5c-1.2,0-2.4,0.9-2.6,1.9c-0.3,1.1,0.4,2,1.6,2l71.7,0.5c1.2,0,2.4-0.9,2.6-1.9
						C1681.9,1462.3,1681.1,1461.4,1680,1461.4z"/>
				</g>
			</g>
		</g>
	</g>
</g>
</svg>
