<svg xmlns="http://www.w3.org/2000/svg" viewBox="0 0 496.06 109.38"><defs><style>.cls-1{fill:#00934a;}.cls-1,.cls-2,.cls-3,.cls-4{fill-rule:evenodd;}.cls-2{fill:#dc1f26;}.cls-3{fill:#00aeef;}.cls-4{fill:#281d6b;}</style></defs><title>Asset 2</title><g id="Layer_2" data-name="Layer 2"><g id="Layer_1-2" data-name="Layer 1"><path class="cls-1" d="M135.93,1.52C201.61-5.06,257.18,10.29,260,35.8c1.75,15.63-16.67,31.44-46.29,42.86,20.16-10.54,31.87-23.35,30.45-36C241.3,16.77,185,1.23,118.48,7.9A283.38,283.38,0,0,0,64,18.57C83.47,10.46,108.4,4.28,135.93,1.52Z"/><path class="cls-2" d="M124.22,107.86C58.54,114.44,3,99.1.11,73.58-1.64,58,16.78,42.15,46.41,30.72,26.25,41.27,14.53,54.08,16,66.77c2.89,25.84,59.18,41.39,125.72,34.72a284.43,284.43,0,0,0,54.48-10.68C176.68,98.93,151.75,105.1,124.22,107.86Z"/><path class="cls-3" d="M100.2,77.59c-5.44,5.79-13.78,7.81-21.32,7.81H45.51L55.83,24.07H87.27c6.91,0,15.28,1.7,18.58,8.34a12.12,12.12,0,0,1,.74,1.87,21.76,21.76,0,0,1,1.69-2.14c6-6.7,15.11-9.36,23.67-9.36,5.53,0,11.57,1.1,16.21,4a16.37,16.37,0,0,1,6,6.39l1.54-9.13h13.81l21.76,30.12,5.06-30.12h18.31L204.33,85.4h-14L168.62,56.07,163.69,85.4H145.38l1.33-7.89c-6.22,6.67-15.77,9.09-24.46,9.09-8.12,0-17.21-2.19-22-9ZM66.37,70.24h13c3.11,0,7.46-.81,8.09-4.54A2.8,2.8,0,0,0,87.24,64c-.88-1.78-4.33-2-6.11-2H67.76l-1.39,8.27Zm84-14.69,1.73-10.25h-14.5l0-1.38c-.07-4.52-2.89-6-7.09-6-2.9,0-7.19.78-7.78,4.29a2.68,2.68,0,0,0,.13,1.54c.66,1.37,3.41,2,4.81,2.31L135.8,48c5.21,1.13,11.4,3.08,14.6,7.59Zm-45.17,7.34h10l0,1.37c.12,5.39,5.31,6.84,9.88,6.84,2.49,0,7-.44,7.57-3.61a1.82,1.82,0,0,0-.44-1.66c-.88-1-2.74-1.42-4-1.66h0L118.65,62c-7-1.56-14.2-4.63-15.74-12.16a18.19,18.19,0,0,1-4.1,3.73,11.92,11.92,0,0,1,6.42,9.3ZM71.61,39.05l-1.46,8.7H81c3.19,0,7.3-1,7.94-4.71a3.24,3.24,0,0,0-.19-1.95c-.91-1.82-4.32-2-6.15-2Z"/><path class="cls-4" d="M412.32,87.05H403l2-14.8H400.2l-2.5,19h14.07l.55-4.16ZM372.77,17.9h-4.71l-1.41,10.67L358.92,17.9h-3.59l-2.5,19h4.7l1.38-10.39,7.71,10.39h3.65l2.5-19ZM343.92,29.58H339l3.28-6.3,1.62,6.3Zm1,4,.85,3.26h5l-5.51-19.06H340.8L330.22,36.85h5l1.69-3.26Zm-27.13-1,1.39-10.47h2.92a4.48,4.48,0,0,1,4.75,5.18,6.18,6.18,0,0,1-6.13,5.29ZM315.06,17.9h7.63c5.94,0,9.72,3.87,9,9.42s-5.55,9.53-11.49,9.53h-7.63l2.5-19ZM303.65,29.58h-4.9l3.28-6.3,1.62,6.3Zm1,4,.85,3.26h5L305,17.79h-4.48L290,36.85h5l1.69-3.26ZM278,33l.5-3.74h4.68c1.73,0,2.62.59,2.47,1.76s-1.13,2-3.05,2Zm1.48-11.2h3.93c1.81,0,2.65.64,2.49,1.84s-1.24,2-3,2H279l.51-3.87Zm7.82,5.35a3.77,3.77,0,0,1,2.89,4.48c-.41,3.15-3.23,5.27-7.49,5.27h-9.92l2.5-19h9.36c4.1,0,6.27,2,5.86,5a5.15,5.15,0,0,1-3.2,4.16Zm208.75,18h-4.71l-2.5,19h4.71l2.5-19Zm-15.63-.42c-4.46,0-7.84,2.4-8.34,6.19-.4,3,1.12,4.76,4.75,5.57l3,.7c1.58.3,1.88,1,1.79,1.61-.13,1-1.14,1.67-2.89,1.67-2.23,0-3.55-1-3.63-2.67h-4.71c-.18,4.68,3.4,6.69,7.67,6.69,4.74,0,8.17-2.37,8.67-6.16.43-3.26-1.64-4.66-5-5.41l-2.57-.61c-1.38-.31-2.07-.75-1.93-1.78.16-1.23,1.33-1.9,3-1.9,1.92,0,2.69,1,2.75,2.4h4.74c.2-5.1-4.22-6.3-7.28-6.3Zm-18,12.09h-4.9l3.28-6.29,1.62,6.29Zm1,4,.85,3.26h5L463.83,45h-4.48L448.78,64h5l1.69-3.26ZM442.39,44.66c3.06,0,7.48,1.2,7.28,6.3h-4.74c-.06-1.42-.83-2.4-2.75-2.4-1.62,0-2.79.67-2.95,1.9-.14,1,.55,1.47,1.93,1.78l2.57.61c3.36.75,5.43,2.15,5,5.41-.5,3.79-3.93,6.16-8.67,6.16-4.27,0-7.85-2-7.67-6.69h4.7c.09,1.67,1.41,2.67,3.64,2.67,1.75,0,2.76-.64,2.89-1.67.09-.64-.21-1.31-1.79-1.61l-3-.7c-3.63-.81-5.15-2.56-4.75-5.57.5-3.79,3.88-6.19,8.34-6.19Zm-11.12.42h-4.71l-2.5,19h4.71l2.5-19ZM408.79,59.79l1.38-10.48h2.93a4.5,4.5,0,0,1,4.75,5.19,6.2,6.2,0,0,1-6.14,5.29ZM406,45.08l-2.5,19h7.63c5.94,0,10.75-3.9,11.49-9.53s-3.05-9.42-9-9.42ZM390.37,54.3l.67-5.07h3.48c1.81,0,3.13,1,2.93,2.51s-1.79,2.56-3.6,2.56Zm2.36,4.24L396.08,64h5.68l-4-6.41a7.52,7.52,0,0,0,4.4-5.88c.54-4.1-2.27-6.66-6.95-6.66h-8.31l-2.5,19h4.71l.73-5.49Zm-17.26-1.79h-4.91l3.29-6.29,1.62,6.29Zm1,4,.85,3.26h5L376.83,45h-4.49L361.77,64h5l1.68-3.26Zm-27.13-1,1.39-10.48h2.92a4.49,4.49,0,0,1,4.75,5.19,6.19,6.19,0,0,1-6.13,5.29ZM346.6,45.08h7.64c5.94,0,9.72,3.87,9,9.42S357.67,64,351.74,64H344.1l2.5-19Zm-3.31,0h-4.71l-1.41,10.67-7.73-10.67h-3.6l-2.5,19h4.71l1.37-10.4L337.13,64h3.66l2.5-19ZM314.44,56.75h-4.91l3.28-6.29,1.63,6.29Zm1,4,.85,3.26h5L315.8,45h-4.49L300.74,64h5l1.69-3.26ZM304.78,49.29h-6L296.81,64H292.1l1.95-14.74H288l.55-4.21h16.78l-.55,4.21Zm-25.51-4.63c-4.46,0-7.84,2.4-8.34,6.19-.4,3,1.13,4.76,4.76,5.57l3,.7c1.57.3,1.87,1,1.79,1.61-.14,1-1.14,1.67-2.9,1.67-2.23,0-3.54-1-3.63-2.67h-4.71c-.17,4.68,3.41,6.69,7.67,6.69,4.74,0,8.17-2.37,8.67-6.16.44-3.26-1.64-4.66-5-5.41l-2.57-.61c-1.38-.31-2.08-.75-1.94-1.78.16-1.23,1.34-1.9,2.95-1.9,1.93,0,2.69,1,2.75,2.4h4.74c.2-5.1-4.21-6.3-7.28-6.3ZM388.79,83.93h-4.9l3.28-6.3,1.62,6.3Zm1,4,.86,3.27h5l-5.51-19.07h-4.48L375.1,91.21h5l1.69-3.27Zm-14.2-15.69-2.5,19h-3.65l-7.72-10.4-1.37,10.4h-4.71l2.51-19h3.59l7.73,10.68,1.41-10.68Zm-32.35,15c-3.07,0-4.94-2.51-4.54-5.49a6.24,6.24,0,0,1,6-5.49c3.06,0,4.93,2.51,4.54,5.49a6.25,6.25,0,0,1-6,5.49Zm2-15.36A11.52,11.52,0,0,0,334,81.73c-.73,5.52,3,9.87,8.73,9.87a11.53,11.53,0,0,0,11.36-9.87c.73-5.52-3-9.87-8.75-9.87Zm-13,.39H327.6l-2.5,19h4.71l2.5-19Zm-15.63-.41c-4.46,0-7.84,2.39-8.34,6.18-.4,3,1.12,4.77,4.75,5.58l3,.69c1.58.31,1.88,1,1.79,1.62-.13,1-1.14,1.67-2.89,1.67-2.23,0-3.55-1-3.64-2.67h-4.71c-.17,4.68,3.41,6.69,7.68,6.69,4.74,0,8.17-2.37,8.67-6.16.43-3.26-1.64-4.66-5-5.41l-2.57-.61c-1.38-.31-2.07-.76-1.93-1.79.16-1.22,1.33-1.89,3-1.89,1.92,0,2.69,1,2.75,2.39H324c.2-5.09-4.22-6.29-7.28-6.29Zm-18,12.09h-4.9l3.28-6.3,1.62,6.3Zm1,4,.85,3.27h5l-5.51-19.07H295.6L285,91.21h5l1.69-3.27Zm-14.2-15.69-2.5,19H279.4l-7.72-10.4-1.37,10.4H265.6l2.5-19h3.6l7.73,10.68,1.41-10.68Z"/></g></g></svg>